<svg width="273" height="117" viewBox="0 0 273 117" fill="none" xmlns="http://www.w3.org/2000/svg">
<path d="M15.3636 19.5225C19.8139 19.5414 24.2644 19.5327 28.7148 19.4965C29.4712 23.4915 30.1431 27.5018 30.7302 31.5249C31.1722 34.436 31.6129 38.1833 32.4245 40.9829C33.01 36.1149 33.8673 31.2058 34.6782 26.3647C35.0629 24.0679 35.2772 21.8401 35.7428 19.5353C39.9817 19.4304 44.6139 19.525 48.884 19.5258L48.8814 60.5078L39.1126 60.4944L39.1007 42.1983C39.1074 40.9724 39.2305 37.3699 38.8593 36.4414L38.7043 36.4636C38.2124 37.461 37.7598 41.6744 37.5605 43.0233L36.319 51.0876C35.7979 54.5143 35.1603 56.9338 34.8576 60.5117C33.072 60.5197 31.2865 60.5081 29.5012 60.477C28.252 53.0469 27.1176 45.598 26.0985 38.1331C26.002 37.4647 25.9406 36.6278 25.4035 36.2287L25.2453 36.3432C25.0204 37.0964 25.1518 43.6316 25.1565 44.848L25.1488 60.4923L15.3686 60.5012C15.1807 47.0008 15.3633 33.0596 15.3636 19.5225Z" fill="#E1E6DF"/>
<path d="M120.961 64.0655C125.098 64.2421 129.864 63.9998 134.139 64.1073L134.141 90.8397C134.141 95.1215 133.979 100.766 134.189 104.969C131.035 105.049 127.532 104.998 124.363 104.967L124.353 86.1156C124.355 85.1699 124.492 81.0423 124.095 80.5128L123.947 80.5698C123.503 81.6465 122.82 87.0905 122.573 88.5639C122.053 91.6596 121.551 94.8628 121.127 97.977C120.813 100.291 120.138 102.658 119.906 105.006C118.198 104.974 116.433 104.991 114.719 104.986C114.45 102.577 113.859 99.5332 113.398 97.0893C112.389 91.7366 112.133 84.9523 110.566 79.8532C110.259 81.3073 110.367 86.769 110.369 88.6093L110.369 104.991C107.121 105 103.874 104.99 100.626 104.962L100.631 74.1604L100.632 66.8195C100.632 66.2176 100.536 64.4913 100.778 64.1161L101.405 64.0744L113.97 64.0654C115.03 69.5589 115.683 75.2741 116.678 80.7958C116.968 82.4053 117.12 83.9592 117.468 85.5839C118.565 78.4006 119.73 71.2275 120.961 64.0655Z" fill="#E1E6DF"/>
<path d="M103.479 19.5237L116.458 19.5097C116.87 21.2653 117.097 23.168 117.424 24.958L119.658 36.8761C120.232 40.0142 120.682 43.0569 121.486 46.1649C121.825 45.016 121.713 38.6316 121.713 36.9673L121.719 19.5221L131.562 19.524L131.562 59.2636L131.551 60.4875C127.456 60.5568 122.603 60.5785 118.533 60.4548C118.282 59.0828 117.906 57.6876 117.626 56.3059C116.327 49.8993 115.267 43.4253 113.852 37.0471C113.783 36.738 113.646 36.5502 113.376 36.4183C113.036 37.0142 113.176 58.0763 113.176 60.5187C110.045 60.4575 106.611 60.4803 103.479 60.5044C103.4 55.8237 103.47 50.9113 103.469 46.2099L103.479 19.5237Z" fill="#E1E6DF"/>
<path fill-rule="evenodd" clip-rule="evenodd" d="M196.243 19.1669C202.567 18.4711 209.27 21.6322 210.229 28.6542C210.648 31.7254 210.346 35.7708 210.352 38.9647L210.366 46.2685C210.374 51.2253 210.41 55.1922 206.014 58.5644C203.954 60.1434 201.846 60.7801 199.278 61.0878C195.465 61.2566 192.321 60.6614 189.196 58.2704C183.435 53.8602 185.185 46.513 184.893 40.2558C184.843 39.2201 184.874 38.0419 184.89 37.0097C185.007 34.2377 184.625 31.253 185.199 28.5253C186.427 22.6992 190.642 19.7842 196.243 19.1669ZM198.726 26.5624C198.129 26.3717 197.56 26.356 196.945 26.452C196.425 26.6787 195.882 26.8964 195.402 27.1942C194.748 28.4905 194.748 29.4029 194.748 30.8417C194.747 37.2939 194.706 43.7505 194.773 50.202C194.78 50.919 194.957 51.7542 195.159 52.4403C195.594 53.895 197.581 53.7494 198.802 53.6669C199.595 53.3069 200.2 52.844 200.518 52.0077C200.931 50.9181 200.825 32.4517 200.716 29.8915C200.691 29.3002 200.693 28.486 200.438 27.9481C200.116 27.2719 199.424 26.7855 198.726 26.5624Z" fill="#E1E6DF"/>
<path fill-rule="evenodd" clip-rule="evenodd" d="M88.0517 19.1627C91.5491 18.8847 94.9822 19.3197 97.8231 21.4937C100.123 23.292 101.917 26.2244 102.093 29.1812C102.466 35.4757 102.156 41.9177 102.26 48.2212C102.381 55.5963 98.4102 60.2011 91.0614 61.0884C84.0188 61.4382 77.7073 58.0954 76.9354 50.5201C76.6297 47.2373 76.8706 43.8944 76.787 40.6021C76.7464 39.0031 76.8764 37.2243 76.7851 35.6607C76.2884 27.1555 78.193 20.2834 88.0517 19.1627ZM91.9579 27.2877C90.7859 26.562 90.2599 26.2589 88.8212 26.4468C88.0788 26.7394 87.15 27.0306 86.8183 27.8306C86.3983 28.8461 86.3847 51.2774 86.7958 52.2056C87.0679 52.8172 87.6617 53.2901 88.2294 53.6197C88.9258 53.6656 89.62 53.7265 90.3173 53.7007C91.7869 53.3618 92.2906 52.7718 92.3495 51.2027C92.5032 47.1142 92.3775 43.0051 92.4159 38.9127C92.4066 36.9423 92.5433 29.4095 92.2274 28.0884C92.1592 27.8148 92.0688 27.547 91.9579 27.2877Z" fill="#E1E6DF"/>
<path fill-rule="evenodd" clip-rule="evenodd" d="M61.4043 19.1639C68.2785 18.5917 74.5326 21.6541 75.3975 29.1482C75.7611 32.3002 75.5756 35.7566 75.5752 38.9627C75.5747 43.2779 75.8056 47.7888 75.2119 52.0594C74.2346 57.5778 69.6181 60.4574 64.4346 61.0867C60.6044 61.2526 57.5342 60.6496 54.4219 58.3123C48.7495 54.1303 50.3555 46.7745 50.125 40.7039C50.0705 39.2654 50.2007 37.678 50.1162 36.2625C49.5982 27.5886 51.17 20.3272 61.4043 19.1639ZM65.3311 27.325C64.1269 26.5666 63.6297 26.2732 62.1455 26.4383C61.4622 26.7136 61.2006 26.821 60.5664 27.2273C59.99 28.5085 59.9656 29.4063 59.9668 30.8025C59.9727 37.3237 59.9148 43.8509 60.001 50.3709C60.0098 51.0318 60.1865 51.846 60.3643 52.4813C60.8511 53.855 62.6408 53.7321 63.795 53.6873C64.3915 53.5066 65.0366 53.307 65.3282 52.7068C65.5065 52.3398 65.5687 51.92 65.6143 51.5184C65.761 50.2265 65.7333 48.9207 65.7344 47.6229C65.7393 41.9811 65.7386 36.3389 65.7266 30.6971C65.7241 29.5677 65.716 28.4019 65.3311 27.325Z" fill="#E1E6DF"/>
<path fill-rule="evenodd" clip-rule="evenodd" d="M69.7344 64.2044C74.9888 63.5021 80.4311 66.109 82.5176 71.0862C83.4563 73.3259 83.5746 75.4565 83.5703 77.8362L74.8242 77.8401C74.8196 76.7654 74.8633 75.6494 74.6885 74.5901C74.3619 72.6109 71.8621 71.8776 70.3213 72.9954C69.8512 73.3388 69.5425 73.859 69.4678 74.4349C69.2508 76.0265 70.861 77.8612 71.7852 79.0687C73.4533 81.2482 75.1613 83.4027 76.8369 85.5775L91.8828 104.93C89.9571 105.025 87.7278 104.981 85.7793 104.986C84.1855 104.991 82.5916 104.981 80.9981 104.957C79.7962 103.22 77.9184 100.991 76.5586 99.3157C73.0284 106.642 61.4984 106.291 55.8897 101.584C50.9256 97.4184 50.1162 89.3791 54.416 84.4476C56.7822 81.734 59.2468 80.8334 62.8018 80.5472C61.7615 79.0003 61.252 77.9951 60.8692 76.1077C60.3744 73.5705 60.909 70.9418 62.3555 68.7962C64.0908 66.2146 66.7294 64.7887 69.7344 64.2044ZM67.9951 88.0071C66.8685 87.3793 65.5685 87.2722 64.3057 87.4105C57.9599 88.756 59.3018 97.0115 66.6104 96.2796C69.2553 95.6441 71.032 93.8217 70.2803 90.9466C69.9447 89.7014 69.1217 88.642 67.9951 88.0071Z" fill="black"/>
<path d="M159.913 19.5213L169.672 19.5167L169.685 36.658C171.121 36.6712 172.558 36.6653 173.995 36.6408C173.961 30.9364 173.961 25.232 173.995 19.5278L183.674 19.527C183.875 32.9351 183.699 46.9563 183.678 60.3886C183.266 60.6436 175.133 60.4756 173.973 60.4503L173.972 43.8053C172.58 43.8288 171.107 43.8003 169.708 43.7961C169.492 48.8791 169.669 55.337 169.669 60.5206L159.914 60.4992C159.682 47.0851 159.9 32.9593 159.913 19.5213Z" fill="#E1E6DF"/>
<path d="M173.521 63.528C177.322 63.0558 181.237 64.3568 183.967 67.0344C187.779 70.7739 187.305 75.6398 187.289 80.5324L177.519 80.5258C177.359 78.2159 177.71 75.3827 177.42 73.1715C176.977 69.7871 171.76 69.9262 171.774 74.0379C171.796 81.3465 171.558 88.7093 171.878 96.008C171.899 96.4858 172.222 96.9816 172.538 97.3222C173.065 97.8849 173.797 98.2153 174.57 98.2406C178.601 98.3885 177.176 92.9871 177.432 90.458C177.472 90.0628 177.427 89.4453 177.426 89.036C176.102 88.9681 174.786 88.8017 173.489 88.5378C173.977 86.1072 174.176 83.8084 174.397 81.3454L176.457 81.6146C180.126 82.2562 183.642 82.4627 187.287 83.0478L187.299 89.4805C187.303 93.4806 187.547 97.2861 185.065 100.689C183.222 103.173 180.466 104.831 177.4 105.302C170.95 106.292 163.355 103.236 162.312 96.0159C161.796 92.4379 162.116 88.2338 162.063 84.5783C162.007 80.7182 161.94 76.6354 162.369 72.8096C163.3 66.9589 168.196 64.2783 173.521 63.528Z" fill="#E1E6DF"/>
<path fill-rule="evenodd" clip-rule="evenodd" d="M155.808 64.0771C155.852 66.0352 156.378 68.1132 156.642 70.0547C156.976 72.5135 157.357 74.9268 157.735 77.374L161.926 104.993C158.547 104.966 155.105 105.048 151.733 104.941C151.639 103.383 151.474 101.919 151.301 100.368C151.081 99.0988 150.869 97.8275 150.671 96.5547L146.405 96.5605C145.971 98.5809 145.575 102.839 145.345 104.997L135.405 104.963C136.004 100.529 136.657 96.1025 137.362 91.6846C137.712 89.5732 138.157 87.4294 138.472 85.3213L140.74 70.5312C141.048 68.5181 141.261 66.3011 141.632 64.3242C141.929 64.0026 141.995 64.1102 142.587 64.0762L155.808 64.0771ZM148.144 74.1465C147.488 79.284 147.411 84.4088 146.726 89.6797L148.812 89.708L150.395 89.71C150.313 86.4905 149.778 83.0338 149.457 79.8027C149.345 78.6676 149.218 75.2616 148.993 74.4053C148.644 74.1418 148.638 74.2154 148.144 74.1465Z" fill="#E1E6DF"/>
<path d="M143.684 19.1685C144.273 19.1054 144.866 19.0767 145.458 19.0827C151.318 19.0864 156.177 22.0636 157.663 27.9074C158.162 29.8689 158.102 31.7097 158.095 33.71L148.259 33.6968C148.241 31.3254 148.637 29.33 147.557 27.2359C146.771 26.7172 145.959 26.3236 144.987 26.3979C144.318 26.448 143.7 26.7754 143.283 27.3005C142.283 28.5332 142.452 31.2222 142.591 32.7315C142.981 36.7297 147.575 36.0906 150.39 36.6152C154.833 37.4428 158.092 40.1802 158.513 44.8217C158.723 46.3486 158.603 47.8812 158.623 49.4079C158.712 55.9877 154.023 60.3356 147.52 61.0497C146.943 61.1038 146.362 61.129 145.782 61.1254C142.311 61.1094 139.134 60.0528 136.663 57.5577C133.568 54.4333 133.344 50.7547 133.361 46.6316L143.221 46.6343C143.287 48.4497 142.773 51.7406 144.197 53.0605C144.769 53.5806 145.529 53.8443 146.302 53.7902C149.526 53.5739 149.12 49.5605 148.928 47.3205C148.603 43.4979 144.39 44.1525 141.576 43.4896C136.728 42.3145 133.51 39.639 132.929 34.5833C132 26.5003 134.783 20.1568 143.684 19.1685Z" fill="#E1E6DF"/>
<path d="M245.721 19.1663C246.28 19.1069 246.841 19.0784 247.402 19.0808C253.266 19.0607 258.241 21.9528 259.739 27.8959C260.239 29.8742 260.193 31.683 260.191 33.7024L250.327 33.6946C250.304 32.1591 250.384 30.7191 250.311 29.113C250.339 26.5272 246.723 25.4725 245.24 27.3765C244.316 28.5624 244.634 32.5391 244.852 33.9692C247.658 37.8377 253.093 35.2827 256.852 38.3132C258.7 39.6299 260.127 41.5706 260.467 43.8846C261.71 52.3264 259.805 59.2262 250.334 60.9531C244.779 61.8284 238.906 59.6936 236.564 54.3124C235.439 51.7267 235.451 49.3791 235.489 46.6274L245.3 46.6343C245.347 49.0334 244.532 54.1202 248.471 53.7904C249.207 53.7331 249.886 53.374 250.346 52.7988C251.369 51.5208 251.211 48.7094 251.012 47.1214C250.556 43.5287 246.348 44.1267 243.657 43.4865C239.12 42.5141 235.629 39.6176 235.055 34.9194C234.051 26.6958 236.642 20.2573 245.721 19.1663Z" fill="#E1E6DF"/>
<path d="M210.967 63.5277C211.537 63.4596 212.11 63.4312 212.682 63.4429C215.946 63.5324 219.329 64.7686 221.569 67.1829C225.209 71.1062 224.789 75.5917 224.645 80.5436C221.479 80.48 218.183 80.5227 215.009 80.5218C214.938 78.5328 215.229 74.9081 214.912 73.1901C214.279 69.7601 209.217 69.7471 209.262 74.449C209.33 81.544 209.101 88.6235 209.329 95.7119C209.37 96.981 210.519 98.0903 211.735 98.2483C216.147 98.8369 214.933 90.9438 214.925 87.8009L218.147 87.7977L224.689 87.8127C224.704 92.3625 225.268 96.9605 222.395 100.825C218.22 106.442 209.454 106.887 204.034 102.916C201.598 101.138 199.971 98.4656 199.515 95.4902C199.153 93.0642 199.342 87.7435 199.336 85.0567C199.569 81.2688 198.91 76.9764 199.57 73.2504C200.665 67.0778 205.401 64.3433 210.967 63.5277Z" fill="#E1E6DF"/>
<path d="M211.592 19.5209L233.636 19.522L233.643 28.2003L227.482 28.2083C227.385 31.2249 227.453 34.5656 227.453 37.6012V54.5159L227.45 60.5204C224.289 60.4593 220.91 60.4949 217.746 60.5005C217.636 57.0076 217.73 53.0263 217.73 49.503L217.722 28.2146L211.59 28.1911L211.592 19.5209Z" fill="#E1E6DF"/>
<path d="M189.286 64.0731C192.232 64.0572 195.178 64.0639 198.124 64.0933C198.125 67.2166 198.161 70.4372 198.062 73.5492C195.686 73.3583 192.293 71.9618 189.535 71.3336C192.073 73.0306 194.801 73.5866 197.016 75.3872C197.397 75.6961 197.887 76.4111 197.953 76.9273C198.218 78.9786 198.125 81.4017 198.125 83.4915L198.113 95.9506L198.114 104.989C194.911 105.003 191.709 104.994 188.506 104.961L188.511 77.9184C188.511 73.5457 188.375 68.5898 188.513 64.2744C188.777 64.0115 188.797 64.0982 189.286 64.0731Z" fill="#E1E6DF"/>
</svg>
