<svg width="349" height="150" viewBox="0 0 349 150" fill="none" xmlns="http://www.w3.org/2000/svg">
<path d="M19.6196 25.0289C25.3029 25.0531 30.9864 25.042 36.6697 24.9956C37.6356 30.1173 38.4937 35.2587 39.2434 40.4166C39.8079 44.1487 40.3707 48.953 41.4071 52.5423C42.1549 46.3012 43.2497 40.0075 44.2852 33.8009C44.7765 30.8563 45.0502 28.0001 45.6448 25.0453C51.058 24.9108 56.9735 25.0322 62.4267 25.0332L62.4233 77.5742L49.9481 77.557L49.9329 54.1005C49.9414 52.5288 50.0987 47.9101 49.6246 46.7198L49.4267 46.7483C48.7985 48.0269 48.2206 53.4288 47.9661 55.1582L46.3805 65.4969C45.7151 69.8902 44.9009 72.9921 44.5143 77.5792C42.2341 77.5894 39.9538 77.5746 37.6739 77.5347C36.0787 68.0089 34.63 58.459 33.3286 48.8886C33.2054 48.0317 33.1269 46.9587 32.441 46.4471L32.239 46.5939C31.9518 47.5596 32.1196 55.9379 32.1256 57.4975L32.1157 77.5543L19.626 77.5657C19.386 60.2575 19.6192 42.3841 19.6196 25.0289Z" fill="#E1E6DF"/>
<path d="M154.472 82.1354C159.756 82.3619 165.841 82.0511 171.302 82.1891L171.303 116.461C171.303 121.951 171.097 129.188 171.365 134.576C167.337 134.678 162.864 134.613 158.816 134.573L158.804 110.405C158.807 109.192 158.982 103.901 158.475 103.222L158.285 103.295C157.718 104.675 156.847 111.655 156.531 113.544C155.867 117.512 155.226 121.619 154.685 125.612C154.283 128.579 153.421 131.612 153.126 134.623C150.944 134.582 148.689 134.605 146.501 134.598C146.158 131.509 145.403 127.607 144.814 124.474C143.525 117.611 143.198 108.913 141.197 102.376C140.806 104.24 140.944 111.242 140.947 113.602L140.946 134.604C136.798 134.616 132.651 134.603 128.504 134.567L128.51 95.0776L128.511 85.6661C128.511 84.8945 128.389 82.6813 128.697 82.2003L129.499 82.1468L145.544 82.1353C146.898 89.1783 147.732 96.5055 149.003 103.585C149.374 105.648 149.567 107.64 150.012 109.723C151.413 100.514 152.9 91.3174 154.472 82.1354Z" fill="#E1E6DF"/>
<path d="M132.147 25.0306L148.723 25.0127C149.249 27.2634 149.538 29.7027 149.956 31.9977L152.809 47.2772C153.542 51.3005 154.117 55.2013 155.143 59.186C155.576 57.713 155.433 49.5279 155.434 47.3942L155.44 25.0285L168.011 25.0309L168.011 75.9792L167.996 77.5483C162.768 77.6372 156.57 77.6649 151.372 77.5064C151.052 75.7474 150.571 73.9587 150.213 72.1873C148.555 63.9737 147.201 55.6737 145.394 47.4965C145.307 47.1002 145.131 46.8594 144.787 46.6903C144.352 47.4543 144.532 74.457 144.531 77.5883C140.532 77.5098 136.148 77.5391 132.148 77.5699C132.047 71.569 132.136 65.2711 132.135 59.2437L132.147 25.0306Z" fill="#E1E6DF"/>
<path d="M250.611 24.5724C258.686 23.6802 267.247 27.7336 268.471 36.7365C269.008 40.674 268.621 45.8594 268.628 49.9542L268.647 59.3186C268.657 65.6736 268.703 70.7589 263.089 75.0822C260.459 77.1068 257.765 77.9226 254.487 78.3171C249.617 78.5335 245.602 77.7713 241.612 74.7059C234.255 69.0519 236.488 59.6323 236.116 51.6102C236.053 50.2823 236.092 48.7723 236.112 47.4488C236.262 43.8948 235.773 40.068 236.507 36.5707C238.075 29.1013 243.458 25.3637 250.611 24.5724Z" fill="#E1E6DF"/>
<path d="M251.507 33.9129C252.292 33.7896 253.019 33.8097 253.782 34.0543C254.674 34.3404 255.557 34.9637 255.967 35.8307C256.294 36.5202 256.291 37.5643 256.323 38.3225C256.463 41.6051 256.597 65.2848 256.07 66.677C255.664 67.7492 254.892 68.3415 253.879 68.8031C252.319 68.9088 249.781 69.0966 249.226 67.2316C248.968 66.3518 248.743 65.2807 248.734 64.3615C248.648 56.0902 248.7 47.8126 248.702 39.5405C248.702 37.6957 248.702 36.5264 249.538 34.8643C250.151 34.4824 250.843 34.2035 251.507 33.9129Z" fill="white"/>
<path d="M112.445 24.5678C116.912 24.2115 121.297 24.7682 124.925 27.5556C127.862 29.8611 130.153 33.6213 130.377 37.4121C130.853 45.482 130.457 53.7402 130.59 61.8216C130.745 71.2772 125.674 77.1809 116.289 78.3184C107.295 78.7669 99.236 74.481 98.2506 64.7688C97.8601 60.5602 98.1666 56.2755 98.0599 52.0546C98.008 50.0045 98.1741 47.7238 98.0575 45.719C97.4232 34.8148 99.8555 26.0047 112.445 24.5678Z" fill="#E1E6DF"/>
<path d="M113.428 33.9063C115.266 33.6653 115.938 34.0533 117.434 34.9838C117.576 35.3163 117.691 35.6597 117.778 36.0106C118.182 37.7037 118.008 47.3617 118.02 49.8879C117.971 55.1347 118.131 60.4027 117.935 65.6444C117.859 67.6563 117.216 68.4126 115.339 68.8471C114.448 68.8802 113.562 68.8027 112.672 68.7438C111.947 68.3212 111.19 67.7146 110.842 66.9305C110.317 65.745 110.334 36.9784 110.87 35.6798C111.294 34.6541 112.48 34.2814 113.428 33.9063Z" fill="white"/>
<path d="M78.4157 24.5691C87.1943 23.8354 95.1809 27.7613 96.2854 37.3693C96.7497 41.4104 96.5136 45.842 96.5131 49.9526C96.5124 55.4851 96.8071 61.268 96.0489 66.7432C94.8008 73.8181 88.9055 77.51 82.2859 78.3169C77.3945 78.5296 73.4732 77.7564 69.4987 74.7598C62.2547 69.3983 64.306 59.9672 64.0116 52.1844C63.942 50.3401 64.108 48.3051 64 46.4903C63.3385 35.3699 65.3461 26.0605 78.4157 24.5691Z" fill="#E1E6DF"/>
<path d="M79.3629 33.8955C81.2585 33.6839 81.8931 34.0595 83.4311 35.032C83.9227 36.4128 83.9326 37.9077 83.9359 39.3558C83.9512 46.589 83.9515 53.8222 83.9452 61.0554C83.9439 62.7194 83.9801 64.3932 83.7927 66.0495C83.7345 66.5644 83.6548 67.1019 83.427 67.5725C83.0547 68.3422 82.2308 68.598 81.4689 68.8297C79.995 68.8871 77.7088 69.0454 77.0871 67.2842C76.86 66.4697 76.635 65.426 76.6238 64.5786C76.5136 56.2195 76.5872 47.8517 76.5797 39.491C76.5781 37.7005 76.6093 36.5492 77.3457 34.9064C78.1557 34.3854 78.49 34.2486 79.3629 33.8955Z" fill="white"/>
<path d="M89.0534 82.3128C95.7635 81.4123 102.714 84.7545 105.379 91.1357C106.578 94.0073 106.728 96.7392 106.723 99.7904L95.5535 99.7952C95.5475 98.4173 95.604 96.9866 95.3808 95.6286C94.964 93.0908 91.7704 92.1501 89.8027 93.5836C89.2021 94.0238 88.8082 94.6913 88.7129 95.4299C88.4358 97.4705 90.4923 99.8221 91.6725 101.37C93.803 104.165 95.9847 106.927 98.1246 109.715L117.339 134.526C114.879 134.648 112.032 134.59 109.544 134.596C107.508 134.603 105.473 134.591 103.438 134.56C101.903 132.333 99.5054 129.475 97.7688 127.328C93.2606 136.721 78.5367 136.271 71.374 130.237C65.0341 124.896 63.9998 114.589 69.4911 108.266C72.5129 104.787 75.6606 103.633 80.2007 103.266C78.8722 101.282 78.2212 99.9941 77.7323 97.5743C77.1004 94.3213 77.7829 90.9506 79.6302 88.1997C81.8463 84.89 85.2158 83.0619 89.0534 82.3128Z" fill="#E1E6DF"/>
<path d="M82.1209 112.065C83.7336 111.888 85.3935 112.025 86.8323 112.83C88.2711 113.644 89.3226 115.002 89.7511 116.599C90.711 120.285 88.4419 122.621 85.064 123.435C75.7306 124.374 74.017 113.79 82.1209 112.065Z" fill="white"/>
<path d="M204.215 25.0274L216.678 25.0215L216.695 46.9976C218.528 47.0144 220.363 47.007 222.199 46.9755C222.156 39.6622 222.156 32.3488 222.199 25.0358L234.559 25.0348C234.816 42.2247 234.591 60.2005 234.564 77.4214C234.038 77.7483 223.652 77.5329 222.171 77.5005L222.17 56.1607C220.392 56.1908 218.511 56.1544 216.724 56.149C216.448 62.6657 216.675 70.945 216.675 77.5906L204.217 77.5632C203.921 60.3656 204.198 42.2557 204.215 25.0274Z" fill="#E1E6DF"/>
<path d="M221.594 81.4463C226.447 80.841 231.447 82.5089 234.933 85.9417C239.802 90.7359 239.196 96.9743 239.176 103.247L226.699 103.238C226.495 100.277 226.943 96.6447 226.573 93.8098C226.006 89.4709 219.345 89.6492 219.362 94.9206C219.391 104.291 219.087 113.73 219.495 123.087C219.522 123.7 219.934 124.336 220.338 124.772C221.012 125.494 221.946 125.917 222.934 125.95C228.082 126.139 226.262 119.214 226.589 115.972C226.64 115.465 226.582 114.674 226.58 114.149C224.89 114.062 223.21 113.849 221.553 113.51C222.176 110.394 222.43 107.447 222.712 104.289L225.343 104.634C230.029 105.457 234.518 105.722 239.174 106.472L239.189 114.719C239.194 119.847 239.506 124.726 236.336 129.089C233.982 132.274 230.463 134.399 226.548 135.003C218.31 136.272 208.611 132.354 207.279 123.097C206.621 118.51 207.029 113.12 206.961 108.434C206.89 103.485 206.804 98.2507 207.353 93.3459C208.541 85.845 214.793 82.4083 221.594 81.4463Z" fill="#E1E6DF"/>
<path d="M182.089 82.1484L198.973 82.1498C199.029 84.6603 199.701 87.3244 200.038 89.8136C200.466 92.966 200.951 96.0601 201.434 99.1977L206.786 134.607C202.471 134.573 198.076 134.677 193.771 134.541C193.65 132.543 193.439 130.667 193.217 128.678C192.936 127.05 192.667 125.42 192.414 123.789L186.966 123.796C186.411 126.386 185.906 131.845 185.611 134.612L172.919 134.568C173.683 128.884 174.517 123.209 175.418 117.545C175.864 114.838 176.433 112.09 176.834 109.387L179.732 90.4241C180.125 87.8432 180.397 85.0018 180.87 82.4673C181.25 82.055 181.333 82.192 182.089 82.1484Z" fill="#E1E6DF"/>
<path d="M189.186 95.0596C189.818 95.1479 189.825 95.0534 190.271 95.3912C190.558 96.4889 190.72 100.856 190.863 102.311C191.273 106.454 191.956 110.885 192.06 115.012L190.039 115.01L187.375 114.974C188.25 108.217 188.349 101.646 189.186 95.0596Z" fill="white"/>
<path d="M183.49 24.5748C184.243 24.494 185 24.4572 185.756 24.4649C193.24 24.4696 199.444 28.2865 201.343 35.7785C201.979 38.2933 201.903 40.6533 201.894 43.2178L189.333 43.2009C189.311 40.1605 189.816 37.6024 188.437 34.9177C187.433 34.2527 186.396 33.748 185.155 33.8434C184.301 33.9075 183.511 34.3272 182.978 35.0004C181.701 36.5808 181.917 40.0283 182.094 41.9633C182.593 47.0891 188.459 46.2699 192.055 46.9424C197.728 48.0035 201.891 51.5129 202.429 57.4635C202.696 59.4212 202.543 61.386 202.568 63.3433C202.682 71.7789 196.694 77.3532 188.39 78.2687C187.653 78.338 186.91 78.3704 186.17 78.3658C181.737 78.3452 177.68 76.9906 174.524 73.7917C170.572 69.7861 170.286 65.0699 170.308 59.784L182.9 59.7874C182.983 62.1149 182.328 66.3339 184.146 68.0262C184.876 68.6929 185.846 69.031 186.834 68.9616C190.952 68.6844 190.432 63.5389 190.187 60.6671C189.772 55.7663 184.393 56.6055 180.799 55.7558C174.608 54.2491 170.498 50.8191 169.756 44.3374C168.57 33.9746 172.124 25.8419 183.49 24.5748Z" fill="#E1E6DF"/>
<path d="M313.797 24.5722C314.51 24.4961 315.227 24.4595 315.944 24.4626C323.432 24.4369 329.785 28.1446 331.699 35.764C332.337 38.3004 332.277 40.6193 332.276 43.2083L319.679 43.1983C319.65 41.2297 319.752 39.3836 319.658 37.3244C319.694 34.0093 315.075 32.6571 313.182 35.0981C312.003 36.6185 312.408 41.7168 312.687 43.5504C316.27 48.5099 323.211 45.2343 328.011 49.1196C330.371 50.8076 332.194 53.2958 332.628 56.2624C334.215 67.0852 331.782 75.9311 319.687 78.145C312.593 79.2672 305.093 76.5303 302.102 69.6313C300.665 66.3163 300.681 63.3066 300.73 59.7788L313.259 59.7877C313.319 62.8634 312.279 69.3849 317.309 68.9622C318.249 68.8886 319.115 68.4282 319.702 67.6908C321.01 66.0524 320.807 62.448 320.553 60.4122C319.971 55.8061 314.597 56.5728 311.16 55.752C305.367 54.5053 300.909 50.7919 300.175 44.7686C298.893 34.2255 302.203 25.9709 313.797 24.5722Z" fill="#E1E6DF"/>
<path d="M269.415 81.4456C270.141 81.3582 270.873 81.3218 271.604 81.3368C275.773 81.4515 280.093 83.0365 282.953 86.1317C287.602 91.1615 287.066 96.9123 286.882 103.261C282.839 103.179 278.629 103.234 274.576 103.233C274.486 100.683 274.857 96.0358 274.452 93.8333C273.643 89.4358 267.179 89.4191 267.237 95.4472C267.324 104.543 267.031 113.62 267.322 122.707C267.375 124.334 268.843 125.757 270.395 125.959C276.03 126.714 274.479 116.594 274.469 112.565L278.583 112.561L286.938 112.58C286.957 118.413 287.677 124.308 284.008 129.263C278.677 136.464 267.482 137.035 260.561 131.943C257.449 129.663 255.372 126.238 254.79 122.423C254.327 119.313 254.569 112.491 254.56 109.047C254.858 104.191 254.017 98.6874 254.86 93.9106C256.257 85.997 262.306 82.4911 269.415 81.4456Z" fill="#E1E6DF"/>
<path d="M270.212 25.0269L298.363 25.0282L298.372 36.1543L290.504 36.1645C290.38 40.032 290.466 44.3149 290.466 48.2067V69.8922L290.463 77.5904C286.427 77.512 282.112 77.5577 278.07 77.5648C277.931 73.0868 278.05 67.9825 278.05 63.4655L278.04 36.1727L270.209 36.1425L270.212 25.0269Z" fill="#E1E6DF"/>
<path d="M241.727 82.145C245.489 82.1246 249.251 82.1333 253.013 82.1709C253.015 86.1751 253.061 90.3041 252.935 94.2938C249.9 94.0492 245.567 92.2587 242.045 91.4534C245.286 93.629 248.769 94.3419 251.599 96.6503C252.085 97.0463 252.71 97.963 252.795 98.6248C253.134 101.255 253.015 104.361 253.015 107.04L253 123.014L253.001 134.601C248.911 134.619 244.822 134.607 240.731 134.566L240.738 99.8954C240.738 94.2894 240.564 87.9356 240.739 82.4032C241.077 82.066 241.102 82.1772 241.727 82.145Z" fill="#E1E6DF"/>
</svg>
